<svg version="1.1"
	 xmlns="http://www.w3.org/2000/svg" xmlns:xlink="http://www.w3.org/1999/xlink" x="0px" y="0px" width="665.132px"
	 height="665.128px" viewBox="0 0 665.132 665.128" enable-background="new 0 0 665.132 665.128" xml:space="preserve">
		<path opacity="0.3" fill="none" stroke="#29ABE2" stroke-width="1.4173" stroke-dasharray="28.3465" d="
			M664.423,332.556c0,183.289-148.573,331.863-331.857,331.863c-183.285,0-331.857-148.574-331.857-331.863
			c0-183.274,148.572-331.848,331.857-331.848C515.85,0.708,664.423,149.282,664.423,332.556z"/>
		<path opacity="0.2" fill="#0071BC" stroke="#FFFFFF" stroke-width="1.4173" stroke-dasharray="22.6772" d="M424.421,332.562
			c0,50.732-41.128,91.857-91.855,91.857c-50.731,0-91.855-41.125-91.855-91.857c0-50.73,41.124-91.854,91.855-91.854
			C383.293,240.708,424.421,281.832,424.421,332.562z"/>

			<circle opacity="0.2" fill="#0071BC" stroke="#FFFFFF" stroke-width="1.4173" stroke-dasharray="17.0079" cx="332.566" cy="332.563" r="61.855"/>

			<circle opacity="0.2" fill="#E6E6E6" stroke="#FFFFFF" stroke-width="1.4173" stroke-dasharray="11.3386" cx="332.566" cy="332.563" r="39.355"/>
		<circle fill="#FFFFFF" stroke="#FFFFFF" stroke-width="1.4173" cx="332.566" cy="332.563" r="31.855"/>
			<path fill="#B3B3B3" d="M364.421,332.578c0,8.861-3.132,16.379-9.394,22.565c-6.263,6.184-13.755,9.276-22.48,9.276
				c-8.722,0-16.208-3.093-22.459-9.276c-6.252-6.187-9.377-13.704-9.377-22.565c0-8.854,3.136-16.396,9.41-22.625
				c6.229-6.162,13.705-9.244,22.427-9.244c8.726,0,16.202,3.082,22.432,9.244C361.273,316.182,364.421,323.723,364.421,332.578z
				 M362.291,332.811v-1.168c-5.662-0.622-8.504-0.934-8.524-0.934c-0.133,0-1.574,0.145-4.329,0.434l1.639,3.208l-4.195,1.536
				l-2.395-5.512l-0.753,0.467c1.354,2.536,2.098,4.989,2.229,7.347c-1.399,1.69-2.798,3.416-4.196,5.173
				c0.021,3.76-0.373,7.174-1.181,10.243l-4.197,3.673l-3.018-2.003c-0.264-4.294-0.965-8.621-2.101-12.98l-2.558-3.671
				l-5.705-1.369l-1.476-3.508l0.984-5.075c1.661-0.489,4.033-1.39,7.115-2.703c0.722,0.512,1.64,0.857,2.754,1.035
				c0.965,0.156,1.928,0.3,2.89,0.434c0.021,0,1.399,0.389,4.131,1.168c1.617,0.445,3.027,0.701,4.23,0.768l1.344-3.337h-1.64
				l-0.95-5.139l-4.099-0.167l0.263,1.668l2.065,2.67l-1.64-0.834l0.394,1.235l-2.885,0.7l1.113-0.834l-0.819-2.369l-1.934-1.402
				l-1.511,1.402l-2.199-0.401l-1.344,2.503l-2.492-1.268l1.935-2.369l2.886-0.835l1.215-1.802l4.264-1.968l0.952-1.102l0.95-4.039
				l-2.59,1.336l1.18,0.667l-1.836,1.735l-0.655-1.869l-0.918,1.468l-2.759-2.403l5.907-5.205h4.853l0.524-2.904
				c-3.278-1.246-6.678-1.868-10.201-1.868c-3.914,0-7.147,0.544-9.706,1.635c0.591,0.467,0.886,0.978,0.886,1.535
				c0,0.266-0.263,0.467-0.787,0.6c-0.373,0.067-0.744,0.134-1.115,0.201c-1.028,0.333-2.071,0.917-3.131,1.751
				c-1.061,0.834-2.038,2.33-2.935,4.488c-0.721,1.691-1.497,2.537-2.327,2.537c-0.524,0-0.99-0.451-1.394-1.352
				c-0.405-0.9-0.618-1.352-0.639-1.352c-0.809,0-1.53,0.212-2.165,0.634c-1.771,1.202-3.432,3.828-4.984,7.876
				c-1.595,4.16-2.393,8.12-2.393,11.88c0,8.372,2.918,15.428,8.755,21.18c5.836,5.751,12.874,8.627,21.115,8.627
				c8.245,0,15.321-2.921,21.234-8.761C359.333,348.286,362.291,341.182,362.291,332.811z M327.301,311.854l-1.082,0.834
				l-1.803,0.267l0.688-2.369h1.803L327.301,311.854z M329.924,316.56l-0.951,1.102l-0.426-1.235l0.689-1.135L329.924,316.56z
				 M333.731,316.426l-1.479,1.535l-1.376-0.132l1.246-1.536l-0.821-0.299l-0.885-1.635l0.492-1.269L333.731,316.426z
				 M335.404,324.936l-0.131,1.368l-1.245-1.368H335.404z"/>

		<path opacity="0.4" fill="none" stroke="#FF00FF" stroke-width="1.4173" stroke-dasharray="5.6693" d="M332.567,115.064
			c-120.125,0-217.501,97.374-217.501,217.494c0,120.13,97.376,217.506,217.501,217.506c120.122,0,217.499-97.376,217.499-217.506
			C550.066,212.438,452.689,115.064,332.567,115.064z M332.567,497.564c-91.13,0-165.001-73.871-165.001-165.005
			c0-91.125,73.871-164.995,165.001-164.995c91.127,0,164.999,73.87,164.999,164.995
			C497.566,423.693,423.694,497.564,332.567,497.564z"/>
		<circle fill="#FF00FF" cx="145.668" cy="364.159" r="3.25"/>
</svg>
